<?xml version="1.0" encoding="UTF-8" standalone="no"?>
<svg width="134px" height="28px" viewBox="0 0 134 28" version="1.1" xmlns="http://www.w3.org/2000/svg" xmlns:xlink="http://www.w3.org/1999/xlink" xmlns:sketch="http://www.bohemiancoding.com/sketch/ns">
    <!-- Generator: Sketch 3.4.2 (15857) - http://www.bohemiancoding.com/sketch -->
    <title>logo</title>
    <desc>Created with Sketch.</desc>
    <defs></defs>
    <g id="Page-1" stroke="none" stroke-width="1" fill="none" fill-rule="evenodd" sketch:type="MSPage">
        <g id="logo" sketch:type="MSLayerGroup">
            <path d="M106.641,27.896 L133.073,27.896 L133.073,1.582 L106.641,1.582 L106.641,27.896 Z" id="Fill-1" fill="#4B63AE" sketch:type="MSShapeGroup"></path>
            <path d="M116.2407,5.8887 C116.2407,8.7367 120.5257,8.0737 120.5257,10.3717 C120.5257,10.7867 120.3567,11.9197 119.0067,11.9787 L118.9757,11.9787 C117.2137,11.9197 117.2557,10.7667 117.2517,10.4487 L117.2517,9.6477 L116.1917,9.6477 L116.1917,12.5617 C117.0537,12.7117 117.9047,12.9087 118.7507,12.9087 C120.2507,12.9087 122.1617,12.3527 122.1617,10.2307 C122.1617,7.3407 117.8207,7.3837 117.8207,5.6347 C117.8207,5.2267 117.9777,4.2247 119.2417,4.2537 C120.5477,4.2197 120.9717,5.5477 120.8137,6.0177 C121.6257,6.0297 121.7577,6.0217 121.8217,5.9567 C121.8237,5.5507 121.8797,4.7037 121.8117,3.3927 C121.0567,3.5287 119.6227,3.2267 118.5767,3.3797 C117.2437,3.6667 116.2407,4.4727 116.2407,5.8887 L116.2407,5.8887 Z M111.1177,4.4467 L111.8637,4.4467 C112.2807,4.4897 112.5737,5.0027 112.5477,5.3227 L112.5477,10.5117 C112.4207,11.4617 111.7507,11.8937 110.9687,11.8937 C110.5177,11.8937 109.5297,11.7817 109.5267,10.8437 L109.5267,9.6477 L108.4237,9.6477 L108.4237,12.5027 C108.5427,12.5487 109.5207,12.8597 111.0467,12.8597 L111.0757,12.8597 C113.3087,12.8297 114.2487,11.4197 114.1827,10.2297 L114.1827,5.2687 C114.2037,4.6487 114.8217,4.3947 115.3307,4.4437 L115.3307,3.5147 L111.1177,3.5147 C111.1097,3.8027 111.1097,4.1407 111.1177,4.4467 L111.1177,4.4467 Z M125.8777,5.2597 C125.8777,6.3837 125.8857,6.5747 125.8847,7.4357 L127.0317,7.4357 C127.8147,7.4397 128.4777,6.8547 128.4777,5.9457 C128.4777,5.4237 128.2027,4.5077 127.4827,4.5077 L126.5387,4.5077 C126.1507,4.5077 125.8777,4.9297 125.8777,5.2597 L125.8777,5.2597 Z M128.2157,3.5527 C129.3927,3.5487 130.1117,4.7757 130.1117,5.8607 C130.1117,7.1997 129.3187,7.7837 128.1387,8.2007 C129.8547,8.8647 129.3437,11.5377 131.1937,11.9197 L131.1937,12.6827 C131.1007,12.7497 130.8177,12.7397 129.0527,12.7357 C128.9587,12.5187 127.6877,8.3987 126.4107,8.3947 L125.8227,8.3947 L125.8227,10.9567 C125.8277,11.5417 126.3547,11.9157 127.0597,11.9037 C127.0817,12.0077 127.0537,12.8297 127.0537,12.7997 C125.0627,12.8127 123.0717,12.7927 123.0717,12.7927 L123.0717,11.8447 C123.5327,11.9017 124.2627,11.7727 124.2477,11.0267 L124.2477,5.2057 C124.2477,4.6417 123.7617,4.4887 123.0877,4.4897 C123.0587,4.3717 123.0587,3.7547 123.0587,3.5497 L128.2157,3.5527 Z" id="Fill-2" fill="#FFFFFF" sketch:type="MSShapeGroup"></path>
            <path d="M131.8101,22.0807 C124.2341,18.9677 115.3321,19.1147 107.6981,22.0517 C114.8021,17.2937 124.7031,17.2057 131.8101,22.0807" id="Fill-4" fill="#FFE62B" sketch:type="MSShapeGroup"></path>
            <path d="M9.3801,27.9336 L9.3801,23.1616 L10.6561,23.1616 L11.4821,26.2946 L11.4951,26.2946 L12.3211,23.1616 L13.5971,23.1616 L13.5971,27.9336 L12.8171,27.9336 L12.8171,24.1796 L12.8041,24.1796 L11.8321,27.9336 L11.1451,27.9336 L10.1731,24.1796 L10.1601,24.1796 L10.1601,27.9336 L9.3801,27.9336 Z" id="Fill-6" fill="#949CA1" sketch:type="MSShapeGroup"></path>
            <path d="M16.7723,26.1228 L17.6783,26.1228 L17.2353,24.1928 L17.2223,24.1928 L16.7723,26.1228 Z M15.4703,27.9338 L16.6533,23.1618 L17.8233,23.1618 L18.9733,27.9338 L18.1013,27.9338 L17.8693,26.9288 L16.6073,26.9288 L16.3493,27.9338 L15.4703,27.9338 Z" id="Fill-9" fill="#949CA1" sketch:type="MSShapeGroup"></path>
            <path d="M23.1925,23.1618 L23.1925,23.9678 L22.1285,23.9678 L22.1285,27.9338 L21.2165,27.9338 L21.2165,23.9678 L20.1525,23.9678 L20.1525,23.1618 L23.1925,23.1618 Z" id="Fill-12" fill="#949CA1" sketch:type="MSShapeGroup"></path>
            <path d="M25.0587,27.9336 L25.0587,23.1616 L27.5567,23.1616 L27.5567,23.9676 L25.9707,23.9676 L25.9707,25.0656 L27.1807,25.0656 L27.1807,25.8716 L25.9707,25.8716 L25.9707,27.1266 L27.6227,27.1266 L27.6227,27.9336 L25.0587,27.9336 Z" id="Fill-15" fill="#949CA1" sketch:type="MSShapeGroup"></path>
            <path d="M30.5997,25.237 L31.0687,25.237 C31.4717,25.237 31.7167,25.039 31.7167,24.576 C31.7167,24.114 31.4717,23.915 31.0687,23.915 L30.5997,23.915 L30.5997,25.237 Z M31.8287,27.934 L31.0357,25.991 L30.5997,25.991 L30.5997,27.934 L29.6877,27.934 L29.6877,23.162 L31.0097,23.162 C32.1067,23.162 32.6287,23.691 32.6287,24.589 C32.6287,25.184 32.4177,25.614 31.9087,25.806 L32.8067,27.934 L31.8287,27.934 Z" id="Fill-18" fill="#949CA1" sketch:type="MSShapeGroup"></path>
            <path d="M34.739,23.162 L35.651,23.162 L35.651,27.934 L34.739,27.934 L34.739,23.162 Z" id="Fill-21" fill="#949CA1" sketch:type="MSShapeGroup"></path>
            <path d="M38.8252,26.1228 L39.7312,26.1228 L39.2872,24.1928 L39.2742,24.1928 L38.8252,26.1228 Z M37.5232,27.9338 L38.7062,23.1618 L39.8752,23.1618 L41.0262,27.9338 L40.1542,27.9338 L39.9222,26.9288 L38.6602,26.9288 L38.4022,27.9338 L37.5232,27.9338 Z" id="Fill-23" fill="#949CA1" sketch:type="MSShapeGroup"></path>
            <path d="M42.8462,27.9336 L42.8462,23.1616 L43.7582,23.1616 L43.7582,27.1266 L45.2252,27.1266 L45.2252,27.9336 L42.8462,27.9336 Z" id="Fill-24" fill="#949CA1" sketch:type="MSShapeGroup"></path>
            <path d="M49.1197,24.4903 C48.9677,24.0403 48.7697,23.8493 48.4517,23.8493 C48.1287,23.8493 47.9507,24.0473 47.9507,24.3713 C47.9507,25.0913 49.9857,25.1443 49.9857,26.6383 C49.9857,27.4583 49.4237,27.9993 48.4657,27.9993 C47.7257,27.9993 47.1507,27.5963 46.9057,26.6583 L47.8047,26.4663 C47.9107,27.0413 48.2407,27.2463 48.5117,27.2463 C48.8297,27.2463 49.0737,27.0353 49.0737,26.6783 C49.0737,25.7793 47.0377,25.7653 47.0377,24.4313 C47.0377,23.6113 47.5277,23.0963 48.4717,23.0963 C49.2857,23.0963 49.7807,23.5783 49.9397,24.2523 L49.1197,24.4903 Z" id="Fill-25" fill="#949CA1" sketch:type="MSShapeGroup"></path>
            <path d="M55.713,23.162 L56.625,23.162 L56.625,27.934 L55.713,27.934 L55.713,23.162 Z" id="Fill-26" fill="#949CA1" sketch:type="MSShapeGroup"></path>
            <path d="M58.8742,27.9336 L58.8742,23.1616 L59.8722,23.1616 L61.1412,25.9906 L61.1542,25.9906 L61.1542,23.1616 L61.9872,23.1616 L61.9872,27.9336 L61.1152,27.9336 L59.7202,24.8536 L59.7072,24.8536 L59.7072,27.9336 L58.8742,27.9336 Z" id="Fill-27" fill="#949CA1" sketch:type="MSShapeGroup"></path>
            <path d="M64.2367,27.9336 L64.2367,23.1616 L65.2347,23.1616 L66.5037,25.9906 L66.5167,25.9906 L66.5167,23.1616 L67.3497,23.1616 L67.3497,27.9336 L66.4767,27.9336 L65.0827,24.8536 L65.0697,24.8536 L65.0697,27.9336 L64.2367,27.9336 Z" id="Fill-28" fill="#949CA1" sketch:type="MSShapeGroup"></path>
            <path d="M70.3791,26.519 C70.3791,27.048 70.6101,27.193 70.9741,27.193 C71.3371,27.193 71.5691,27.048 71.5691,26.519 L71.5691,24.576 C71.5691,24.047 71.3371,23.902 70.9741,23.902 C70.6101,23.902 70.3791,24.047 70.3791,24.576 L70.3791,26.519 Z M69.4671,24.695 C69.4671,23.519 70.0881,23.096 70.9741,23.096 C71.8601,23.096 72.4811,23.519 72.4811,24.695 L72.4811,26.4 C72.4811,27.577 71.8601,28 70.9741,28 C70.0881,28 69.4671,27.577 69.4671,26.4 L69.4671,24.695 Z" id="Fill-29" fill="#949CA1" sketch:type="MSShapeGroup"></path>
            <path d="M74.2347,23.1618 L75.1337,23.1618 L75.9727,26.5718 L75.9857,26.5718 L76.8187,23.1618 L77.7107,23.1618 L76.4947,27.9338 L75.4577,27.9338 L74.2347,23.1618 Z" id="Fill-30" fill="#949CA1" sketch:type="MSShapeGroup"></path>
            <path d="M80.2788,26.1228 L81.1848,26.1228 L80.7408,24.1928 L80.7278,24.1928 L80.2788,26.1228 Z M78.9768,27.9338 L80.1598,23.1618 L81.3288,23.1618 L82.4798,27.9338 L81.6078,27.9338 L81.3758,26.9288 L80.1138,26.9288 L79.8558,27.9338 L78.9768,27.9338 Z" id="Fill-31" fill="#949CA1" sketch:type="MSShapeGroup"></path>
            <path d="M86.699,23.1618 L86.699,23.9678 L85.635,23.9678 L85.635,27.9338 L84.723,27.9338 L84.723,23.9678 L83.658,23.9678 L83.658,23.1618 L86.699,23.1618 Z" id="Fill-32" fill="#949CA1" sketch:type="MSShapeGroup"></path>
            <path d="M88.617,23.162 L89.529,23.162 L89.529,27.934 L88.617,27.934 L88.617,23.162 Z" id="Fill-33" fill="#949CA1" sketch:type="MSShapeGroup"></path>
            <path d="M92.5585,26.519 C92.5585,27.048 92.7895,27.193 93.1535,27.193 C93.5165,27.193 93.7475,27.048 93.7475,26.519 L93.7475,24.576 C93.7475,24.047 93.5165,23.902 93.1535,23.902 C92.7895,23.902 92.5585,24.047 92.5585,24.576 L92.5585,26.519 Z M91.6465,24.695 C91.6465,23.519 92.2675,23.096 93.1535,23.096 C94.0385,23.096 94.6595,23.519 94.6595,24.695 L94.6595,26.4 C94.6595,27.577 94.0385,28 93.1535,28 C92.2675,28 91.6465,27.577 91.6465,26.4 L91.6465,24.695 Z" id="Fill-34" fill="#949CA1" sketch:type="MSShapeGroup"></path>
            <path d="M96.7776,27.9336 L96.7776,23.1616 L97.7756,23.1616 L99.0446,25.9906 L99.0576,25.9906 L99.0576,23.1616 L99.8906,23.1616 L99.8906,27.9336 L99.0176,27.9336 L97.6236,24.8536 L97.6096,24.8536 L97.6096,27.9336 L96.7776,27.9336 Z" id="Fill-35" fill="#949CA1" sketch:type="MSShapeGroup"></path>
            <path d="M0.648,1.1609 L7.553,1.1609 L7.229,2.2399 C6.042,2.2939 5.557,2.7789 5.557,4.3979 L5.557,18.3159 C5.557,21.0669 2.86,23.4409 0,24.5739 L0,23.3329 C2.266,22.0919 3.237,20.3659 3.237,17.3439 L3.237,6.5559 C3.237,2.7249 2.482,2.2939 0.324,2.2399 L0.648,1.1609 Z" id="Fill-36" fill="#4B63AE" sketch:type="MSShapeGroup"></path>
            <path d="M8.9243,13.1369 L10.4893,12.4359 C10.5433,15.8339 10.8663,16.8589 14.1033,16.8589 C16.4233,16.8589 17.3943,15.8879 17.3943,13.9459 C17.3943,9.9539 8.8703,10.2239 8.8703,5.4769 C8.8703,2.5639 10.9203,0.8369 14.4813,0.8369 C15.9913,0.8369 17.3133,0.9449 18.9583,0.9989 L18.9583,5.3149 L17.6643,5.8539 L17.6103,5.8539 C17.4483,3.0489 17.1243,2.5639 14.0493,2.5639 C11.9993,2.5639 11.3523,3.8039 11.3523,4.9369 C11.3523,8.3899 19.8763,8.4709 19.8763,13.3259 C19.8763,16.8049 17.3403,18.5859 14.4813,18.5859 C11.8383,18.5859 10.3813,18.4229 8.9243,18.4229 L8.9243,13.1369 Z" id="Fill-37" fill="#4B63AE" sketch:type="MSShapeGroup"></path>
            <path d="M25.7021,8.3357 C26.1071,8.3897 26.5121,8.4437 26.9161,8.4437 C29.2621,8.4437 30.5301,7.8767 30.5301,5.5037 C30.5301,3.5347 29.6401,2.5637 27.5361,2.5637 C25.9721,2.5637 25.7021,2.9947 25.7021,4.5057 L25.7021,8.3357 Z M21.2781,18.4227 L21.6021,17.3447 C22.8961,17.2907 23.3821,16.8597 23.3821,13.8917 L23.3821,5.0447 C23.3821,2.8327 22.8431,2.2937 21.2241,2.2397 L21.5481,1.1607 L28.2101,1.1607 C31.0691,1.1607 33.1731,2.4287 33.1731,5.4767 C33.1731,7.6877 31.3401,9.4147 29.0471,9.4687 L29.0471,9.5227 C31.0421,9.8457 32.1491,13.2447 32.9571,14.8897 C33.9291,16.8597 34.3341,17.1827 35.9521,17.3447 L35.7361,18.4227 L31.9871,18.4227 C27.8061,10.0087 28.0221,9.8457 25.7021,9.8457 L25.7021,12.6517 C25.7021,16.8047 26.2951,17.2907 28.9391,17.3447 L28.6151,18.4227 L21.2781,18.4227 Z" id="Fill-38" fill="#4B63AE" sketch:type="MSShapeGroup"></path>
            <path d="M41.4179,18.4303 L41.7089,17.3513 C42.9469,17.2973 43.3109,16.6503 43.3109,15.1123 L43.3109,5.4293 C43.3109,3.2723 42.7769,2.3003 41.2229,2.2473 L41.5149,1.1673 L45.6419,1.1673 C46.8069,4.5123 49.3319,10.5543 51.2739,14.4923 C53.3129,10.1503 55.4499,4.9433 56.8099,1.1673 L61.0819,1.1673 L60.7909,2.2473 C59.6499,2.3003 59.1399,2.6783 59.1399,4.0803 L59.1399,14.1143 C59.1399,16.6503 59.5529,17.2973 61.0819,17.3513 L60.7909,18.4303 L54.0899,18.4303 L54.3809,17.3513 C56.6639,17.2973 57.0519,16.4883 57.0519,13.5213 L57.0519,5.1593 L57.0029,5.1593 C55.9349,7.3713 53.1669,13.4143 51.5649,18.4303 L50.6419,18.7543 C49.3799,15.2473 46.4669,8.6663 44.9139,5.3223 L44.8649,5.3223 L44.8649,13.6303 C44.8649,16.6503 45.4719,17.2973 47.8259,17.3513 L47.5349,18.4303 L41.4179,18.4303 Z" id="Fill-39" fill="#4B63AE" sketch:type="MSShapeGroup"></path>
            <path d="M63.9807,2.5975 C64.0077,2.0575 65.2757,1.8145 65.8687,1.8145 C66.2197,1.8145 66.3537,1.9495 66.3537,3.3525 C66.3537,4.0005 66.1387,4.3775 63.8727,4.9435 L63.9807,2.5975 Z M67.9727,18.4305 L62.0927,18.4305 L62.4167,17.3515 C63.4407,17.2975 64.0347,16.9195 64.0347,15.3005 L64.0347,9.2595 C64.0347,8.2345 63.6567,7.8565 62.0927,7.8565 L62.4167,6.8315 C63.6837,6.6975 65.4907,6.1305 66.4627,5.6455 C66.4087,6.2925 66.3537,7.4255 66.3537,8.4505 L66.3537,16.0035 C66.3537,16.8125 66.8937,17.2975 68.2967,17.3515 L67.9727,18.4305 Z" id="Fill-40" fill="#4B63AE" sketch:type="MSShapeGroup"></path>
            <path d="M78.3845,8.181 C77.0895,7.588 75.6875,7.372 74.2845,7.372 C72.5585,7.372 71.4255,8.72 71.4255,12.335 C71.4255,15.032 72.9355,16.866 75.5785,16.866 C76.9815,16.866 78.3575,16.65 79.0325,16.435 L78.3845,18.323 C77.1705,18.538 75.9565,18.754 74.6615,18.754 C71.2095,18.754 68.9435,16.38 68.9435,12.577 C68.9435,8.343 71.6955,5.645 75.2015,5.645 C76.5775,5.645 77.2775,5.753 77.9525,5.861 L78.3845,8.181 Z" id="Fill-41" fill="#4B63AE" sketch:type="MSShapeGroup"></path>
            <path d="M79.8413,18.4303 L80.1643,17.3513 C81.2973,17.2973 81.6213,16.9743 81.6213,16.1383 L81.6213,9.5833 C81.6213,8.3963 81.1893,7.9113 79.6793,7.8573 L80.0033,6.7783 C81.1633,6.5893 82.5923,6.1303 83.7253,5.6453 C83.6713,6.2383 83.6173,6.8053 83.6173,7.3983 L83.6173,9.1513 L83.6713,9.1513 C84.5613,6.6703 86.0723,5.6453 88.7423,5.6453 L87.8523,8.1813 C84.8583,8.1813 83.9413,8.3693 83.9413,13.8443 C83.9413,16.8123 84.2653,17.1903 86.5303,17.3513 L86.1523,18.4303 L79.8413,18.4303 Z" id="Fill-42" fill="#4B63AE" sketch:type="MSShapeGroup"></path>
            <path d="M95.6796,16.8662 C98.2146,16.8662 98.9166,16.0562 98.9166,12.6322 C98.9166,8.8282 97.6746,7.5332 94.3846,7.5332 C91.8486,7.5332 91.1486,8.3422 91.1486,11.7682 C91.1486,15.5712 92.3886,16.8662 95.6796,16.8662 M95.5716,5.6452 C99.1046,5.6452 101.2356,8.0192 101.2356,11.7952 C101.2356,16.0292 98.8076,18.7542 94.4926,18.7542 C90.9586,18.7542 88.8286,16.3802 88.8286,12.6042 C88.8286,8.3702 91.2556,5.6452 95.5716,5.6452" id="Fill-43" fill="#4B63AE" sketch:type="MSShapeGroup"></path>
        </g>
    </g>
</svg>